<?xml version="1.0" encoding="utf-8"?>
<!-- Generator: Adobe Illustrator 16.0.0, SVG Export Plug-In . SVG Version: 6.00 Build 0)  -->
<!DOCTYPE svg PUBLIC "-//W3C//DTD SVG 1.1 Tiny//EN" "http://www.w3.org/Graphics/SVG/1.1/DTD/svg11-tiny.dtd">
<svg version="1.1" baseProfile="tiny" id="Layer_1" xmlns="http://www.w3.org/2000/svg" xmlns:xlink="http://www.w3.org/1999/xlink"
	 x="0px" y="0px" width="90.5px" height="85.5px" viewBox="0 0 90.5 85.5" xml:space="preserve">
<g>
	<circle fill="#939393" cx="46" cy="43" r="36"/>
	<g>
		<path fill="#FFFFFF" d="M40.655,33.135l-5.048,17.5c-0.266,1-0.397,1.663-0.397,1.989c0,0.164,0.071,0.327,0.214,0.49
			c0.143,0.164,0.296,0.245,0.459,0.245c0.285,0,0.562-0.122,0.826-0.367c0.754-0.612,1.642-1.713,2.662-3.304l0.856,0.489
			c-2.488,4.325-5.13,6.487-7.925,6.487c-1.061,0-1.907-0.301-2.539-0.903c-0.632-0.601-0.948-1.36-0.948-2.279
			c0-0.612,0.142-1.388,0.429-2.325l3.427-11.78c0.326-1.121,0.489-1.968,0.489-2.539c0-0.367-0.158-0.693-0.474-0.979
			c-0.316-0.285-0.74-0.429-1.27-0.429c-0.265,0-0.561,0.011-0.887,0.031l0.306-0.979l8.354-1.346L40.655,33.135L40.655,33.135z
			 M39.125,21.784c1.021,0,1.882,0.357,2.585,1.071c0.704,0.714,1.056,1.571,1.056,2.57c0,1-0.356,1.851-1.07,2.555
			c-0.714,0.703-1.571,1.055-2.57,1.055c-0.979,0-1.82-0.352-2.524-1.055c-0.703-0.704-1.055-1.555-1.055-2.555
			c0-0.999,0.347-1.856,1.04-2.57S38.125,21.784,39.125,21.784z"/>
		<path fill="#FFFFFF" d="M55.004,36.684l-2.876,11.381c-1.346,5.386-2.657,9.281-3.932,11.688
			c-1.275,2.407-2.774,4.191-4.497,5.354c-1.725,1.163-3.688,1.743-5.891,1.743c-1.406,0-2.437-0.271-3.09-0.811
			c-0.652-0.541-0.979-1.168-0.979-1.882c0-0.673,0.271-1.254,0.811-1.744c0.541-0.49,1.26-0.735,2.157-0.735
			c0.734,0,1.296,0.188,1.683,0.566c0.389,0.377,0.581,0.852,0.581,1.423c0,0.53-0.122,0.923-0.367,1.178
			c-0.244,0.255-0.366,0.423-0.366,0.505l0.122,0.153c0.102,0.081,0.225,0.122,0.366,0.122c0.49,0,0.908-0.153,1.255-0.459
			c0.856-0.775,1.5-1.713,1.928-2.814c0.306-0.756,0.877-2.743,1.713-5.967l5.018-19.703h-3.427l0.826-2.876
			c1.224,0.021,2.116-0.132,2.677-0.459c0.562-0.326,1.148-1.06,1.759-2.203c1.815-3.345,3.723-5.742,5.723-7.19
			c1.999-1.448,4.231-2.172,6.699-2.172c1.571,0,2.714,0.306,3.428,0.918c0.713,0.612,1.071,1.407,1.071,2.387
			c0,0.836-0.235,1.504-0.703,2.004c-0.471,0.5-1.062,0.75-1.774,0.75c-0.653,0-1.193-0.204-1.622-0.612
			c-0.429-0.408-0.642-0.897-0.642-1.468c0-0.408,0.138-0.842,0.413-1.3c0.274-0.458,0.413-0.77,0.413-0.933
			c0-0.184-0.062-0.331-0.185-0.444c-0.122-0.112-0.286-0.168-0.49-0.168c-0.979,0-1.979,0.592-2.998,1.774
			c-1.673,1.938-3.019,4.977-4.039,9.117h3.58l-0.855,2.876H55.004L55.004,36.684z"/>
	</g>
</g>
</svg>
