<?xml version="1.0" encoding="utf-8"?>
<!-- Generator: Adobe Illustrator 16.0.0, SVG Export Plug-In . SVG Version: 6.00 Build 0)  -->
<!DOCTYPE svg PUBLIC "-//W3C//DTD SVG 1.1 Tiny//EN" "http://www.w3.org/Graphics/SVG/1.1/DTD/svg11-tiny.dtd">
<svg version="1.1" baseProfile="tiny" id="Layer_1" xmlns="http://www.w3.org/2000/svg" xmlns:xlink="http://www.w3.org/1999/xlink"
	 x="0px" y="0px" width="104.5px" height="91.5px" viewBox="0 0 104.5 91.5" xml:space="preserve">
<g>
	<polygon fill="#939393" points="53.202,80.121 10.355,80.121 31.778,44.048 53.202,8.121 74.626,44.12 96.049,80.121 	"/>
	<g>
		<path fill="#FFFFFF" d="M58.09,58.538h-9.567l-1.479-26.446h12.523L58.09,58.538z M47.16,68.323c0-1.696,0.522-3.014,1.566-3.957
			c1.043-0.941,2.56-1.412,4.551-1.412c1.972,0,3.465,0.47,4.479,1.412s1.522,2.26,1.522,3.957c0,1.677-0.526,2.987-1.58,3.927
			c-1.054,0.941-2.527,1.412-4.421,1.412c-1.913,0-3.411-0.47-4.494-1.412C47.701,71.31,47.16,70,47.16,68.323z"/>
	</g>
</g>
</svg>
